<svg width="495" height="367" viewBox="0 0 495 367" fill="none" xmlns="http://www.w3.org/2000/svg">
<path d="M248.234 1.69093C316.073 1.81686 377.411 22.2785 421.74 55.2345C466.069 88.1905 493.363 133.616 493.215 183.69C493.068 233.764 465.506 279.088 420.983 311.879C376.46 344.67 315.003 364.904 247.164 364.778C179.324 364.652 117.987 344.19 73.6581 311.234C29.3291 278.278 2.03482 232.853 2.18245 182.779C2.33008 132.704 29.8919 87.3808 74.4147 54.5897C118.937 21.7988 180.395 1.56501 248.234 1.69093Z" fill="black" stroke="#2B2B2B"/>
<path d="M456.531 185.056C456.667 142.443 433.302 103.866 395.5 75.9347C357.698 48.0036 305.43 30.6933 247.659 30.5939C189.888 30.4945 137.511 47.6247 99.5313 75.4255C61.5518 103.226 37.9419 141.723 37.8064 184.336C37.6708 226.949 61.0355 265.526 98.8378 293.457C136.64 321.389 188.907 338.699 246.679 338.798C304.45 338.898 356.827 321.767 394.806 293.967C432.786 266.166 456.396 227.669 456.531 185.056Z" stroke="#2B2B2B"/>
<path d="M493.992 184.703C494.151 134.598 466.679 89.2309 422.216 56.3788C377.753 23.5264 316.273 3.16356 248.314 3.04664C180.356 2.92972 118.746 23.0809 74.0751 55.7798C29.4039 88.4787 1.64322 133.751 1.48384 183.856C1.32446 233.961 28.7968 279.328 73.2595 312.181C117.722 345.033 179.203 365.396 247.161 365.513C315.12 365.63 376.729 345.478 421.4 312.779C466.072 280.081 493.832 234.808 493.992 184.703Z" stroke="#2B2B2B"/>
<path d="M424.749 184.584C424.864 148.541 405.101 115.918 373.14 92.3022C341.178 68.6866 296.99 54.0532 248.152 53.9691C199.315 53.8851 155.034 68.3663 122.922 91.8717C90.8109 115.377 70.8409 147.932 70.7263 183.975C70.6116 220.018 90.3743 252.642 122.336 276.257C154.298 299.873 198.486 314.506 247.323 314.59C296.161 314.674 340.442 300.193 372.553 276.688C404.665 253.182 424.635 220.627 424.749 184.584Z" stroke="#2B2B2B"/>
<path d="M395.235 184.951C395.331 154.786 378.791 127.49 352.055 107.736C325.319 87.9814 288.36 75.7431 247.516 75.6728C206.671 75.6025 169.634 87.7135 142.773 107.376C115.912 127.038 99.199 154.277 99.103 184.441C99.0071 214.606 115.547 241.902 142.282 261.656C169.018 281.411 205.977 293.649 246.822 293.719C287.667 293.79 324.703 281.679 351.565 262.017C378.426 242.355 395.139 215.116 395.235 184.951Z" stroke="#2B2B2B"/>
<path d="M365.723 184.483C365.799 160.427 352.609 138.667 331.304 122.925C309.999 107.184 280.552 97.4344 248.014 97.3784C215.476 97.3225 185.968 106.97 164.563 122.639C143.158 138.307 129.829 160.021 129.753 184.077C129.676 208.133 142.867 229.892 164.171 245.634C185.476 261.376 214.923 271.125 247.461 271.181C279.999 271.237 309.508 261.589 330.913 245.921C352.318 230.253 365.646 208.539 365.723 184.483Z" stroke="#2B2B2B"/>
<path d="M335.072 185.265C335.129 167.433 325.351 151.314 309.579 139.661C293.808 128.007 272.015 120.794 247.94 120.753C223.865 120.711 202.027 127.85 186.181 139.448C170.336 151.047 160.455 167.132 160.398 184.964C160.342 202.796 170.12 218.915 185.891 230.568C201.663 242.222 223.456 249.435 247.531 249.476C271.605 249.518 293.444 242.379 309.29 230.781C325.135 219.182 335.015 203.097 335.072 185.265Z" stroke="#2B2B2B"/>
<path d="M307.828 185.635C307.867 173.221 301.059 162.011 290.104 153.917C279.148 145.822 264.017 140.816 247.309 140.787C230.6 140.758 215.437 145.712 204.43 153.769C193.423 161.826 186.544 173.012 186.505 185.427C186.465 197.841 193.273 209.051 204.229 217.145C215.184 225.24 230.315 230.246 247.024 230.275C263.733 230.304 278.895 225.35 289.902 217.293C300.909 209.236 307.788 198.05 307.828 185.635Z" stroke="#2B2B2B"/>
<path d="M286.263 184.763C286.288 176.959 282.008 169.928 275.151 164.862C268.294 159.795 258.833 156.668 248.393 156.65C237.954 156.632 228.473 159.727 221.584 164.77C214.695 169.812 210.37 176.829 210.345 184.633C210.32 192.437 214.6 199.468 221.457 204.534C228.314 209.601 237.775 212.728 248.215 212.746C258.654 212.764 268.135 209.669 275.025 204.626C281.914 199.584 286.238 192.568 286.263 184.763Z" fill="#8B1E1E" stroke="#2B2B2B"/>
<path d="M238.002 47.8099V45.8414C238.002 44.7816 238.464 43.7743 239.266 43.0818L239.362 42.9988C239.967 42.4762 240.363 41.752 240.475 40.9602C240.575 40.2547 240.901 39.6004 241.403 39.0947L243.304 37.1798C243.71 36.7717 244.146 36.3961 244.61 36.0563L247.526 33.9213H247.854L250.153 34.2521M238.002 47.8099L236.892 48.9282C236.324 49.5001 235.87 50.1749 235.554 50.9166C235.219 51.7032 235.047 52.5493 235.047 53.4042V53.5862C235.047 54.3598 235.171 55.1284 235.414 55.8628L236.032 57.7302M238.002 47.8099L238.121 47.6505C238.518 47.1178 239.316 47.2227 239.316 47.887V49.9894C239.316 50.2879 239.198 50.5743 238.988 50.7861C238.777 50.9979 238.659 51.2843 238.659 51.5828V52.8474C238.659 53.2349 238.606 53.6206 238.5 53.9935L238.393 54.3687C238.142 55.2552 238.357 56.2264 238.227 57.1387L238.15 57.6785C238.053 58.3635 237.786 59.0131 237.373 59.568L237.017 60.0451L236.032 57.7302M236.032 57.7302L233.405 64.6745L232.091 66.3279L230.778 68.6426L230.121 73.9335L229.136 78.2323L228.808 79.2243L228.479 80.5471M228.479 80.5471L227.823 81.2085V84.5152L225.195 86.1686H223.554V86.9274L224.539 87.4914L225.195 89.1448L226.181 90.4675L225.852 92.1209L225.524 92.7822L226.181 93.1129L227.823 91.1288L228.479 91.4595L227.823 93.1129L228.479 94.4356V96.4197H229.464L228.808 98.4038V99.1585L228.479 100.388L229.464 101.049H230.121M228.479 80.5471L229.136 81.8699V85.5074L229.464 86.9274L230.121 89.1448V90.4675L231.435 92.7822L231.763 94.4357L232.748 96.4197V99.7266L233.405 101.711L233.733 103.364L235.375 105.679L237.346 107.001L238.659 108.655L240.629 110.639L242.271 112.505L242.928 113.615L243.257 114.607L243.585 115.268V116.261L243.913 117.253M230.121 101.049L229.464 101.711L228.808 102.703L227.494 104.025L227.166 104.687L226.181 105.017H225.524L225.195 105.679L224.539 106.009H223.225V106.671L223.882 107.001H224.867V107.663L223.882 108.655L222.568 110.639L221.912 111.962V112.505L220.27 113.284L219.285 113.615L218.628 114.607H216.001L215.344 114.938L213.702 117.253V119.567L214.359 120.559V121.882L212.389 122.543L212.06 123.535L211.075 123.866L210.418 124.858V125.52L209.433 127.173L207.791 129.157L207.134 133.787L208.448 133.456L206.806 135.109L204.836 137.424L203.522 138.085L202.537 140.069L201.223 142.053L201.552 143.046L200.238 143.707L200.567 144.699L197.94 146.022V147.344L195.641 149.659L197.94 148.667L196.626 150.651V150.982L195.641 152.966L195.313 154.95L194.656 155.942L193.999 159.91L193.671 162.225L193.671 165.862L193.999 169.831L194.656 173.624L197.283 179.09M230.121 101.049L230.45 106.009V111.962L231.106 114.607V119.898L230.121 123.866V124.858L229.464 128.165L228.808 130.149L228.151 132.464L225.195 136.101L223.882 138.085L221.912 138.747M290.215 99.1585L299.739 92.7822L301.38 87.4914V84.5152L299.739 81.2085L295.947 77.6289C295.195 76.9189 294.774 75.9393 294.762 74.9236C294.757 74.4853 294.776 74.0436 294.705 73.6111L294.484 72.2802L294.156 70.6268L293.828 69.3041L293.171 67.6507L292.186 65.9973L291.529 64.6746L291.201 64.3439L291.149 63.8759C290.972 62.2771 291.472 60.6773 292.527 59.4631L292.621 59.3547C292.985 58.9362 293.275 58.4592 293.48 57.9439C293.71 57.3659 293.828 56.7496 293.828 56.1276V53.2609C293.828 52.935 293.788 52.6102 293.709 52.2939L293.655 52.0752C293.552 51.6615 293.362 51.2747 293.097 50.941L292.72 50.4662C292.383 50.0424 292.262 49.4863 292.393 48.9609C292.472 48.6411 292.459 48.3053 292.356 47.9925L292.348 47.9703C292.242 47.6495 292.229 47.3053 292.31 46.9774C292.439 46.4578 292.327 45.9058 292.007 45.4764C291.704 45.0685 291.585 44.5492 291.685 44.0503L291.726 43.8405C291.812 43.4097 291.771 42.9633 291.609 42.5551L290.615 40.0526C290.568 39.9336 290.508 39.8199 290.438 39.7132L289.95 38.9773C289.911 38.9176 289.844 38.8816 289.772 38.8816C289.654 38.8816 289.559 38.786 289.559 38.668V38.0632C289.559 37.754 289.384 37.4712 289.108 37.3322L288.976 37.2657C288.927 37.2408 288.879 37.212 288.834 37.1796L287.683 36.3514C286.966 35.8356 286.189 35.408 285.37 35.078L284.961 34.9135L283.622 34.2392C283.203 34.0283 282.758 33.8746 282.298 33.782L282.267 33.7756C281.66 33.6534 281.036 33.6433 280.426 33.7457L280.035 33.8112C279.602 33.8839 279.159 33.8661 278.733 33.7589C278.293 33.6481 277.834 33.6328 277.388 33.714L276.247 33.9215L274.453 34.2521L264.601 34.9135H255.407M255.407 34.9135L252.451 34.5828L250.153 34.2521M255.407 34.9135L254.531 36.2361C254.242 36.6728 253.869 37.0478 253.435 37.3397L253.402 37.3616C253.207 37.4928 253.025 37.6431 252.859 37.8101L252.648 38.0217C252.518 38.1532 252.409 38.3049 252.327 38.4709L252.298 38.5285C252.183 38.7599 252.01 38.9574 251.796 39.1014L251.602 39.2312C251.312 39.4261 251.138 39.7528 251.138 40.1025V40.2009C251.138 40.4149 251.053 40.6203 250.902 40.7722C250.841 40.8341 250.77 40.8857 250.692 40.925L249.87 41.3386C249.627 41.4609 249.43 41.6588 249.309 41.9025C249.24 42.0428 249.053 42.073 248.942 41.9619L248.461 41.4772C248.283 41.2975 248.04 41.1964 247.787 41.1964H247.733C247.405 41.1964 247.105 41.3823 246.959 41.6762C246.9 41.7956 246.869 41.9271 246.869 42.0605V42.2199C246.869 42.523 246.958 42.8193 247.125 43.0721L247.197 43.1805L247.854 44.5032M250.153 34.2521L249.496 35.5749L249.132 36.1248C248.937 36.4187 248.714 36.6927 248.466 36.9429L248.114 37.2969C247.942 37.4705 247.798 37.6706 247.69 37.8896C247.581 38.1086 247.438 38.3087 247.265 38.4823L247.069 38.6797C246.936 38.8142 246.793 38.939 246.642 39.0532L245.555 39.8737M278.065 69.3041L273.139 68.6426H270.779C269.096 68.6426 267.44 69.0675 265.965 69.8779L265.612 70.0718C264.941 70.4406 264.229 70.731 263.491 70.9374L261.705 71.437C259.742 71.986 257.994 73.1217 256.695 74.6918L255.407 76.2484L253.443 78.7906C253.22 79.079 252.969 79.3443 252.693 79.5825C251.497 80.6149 250.809 82.1168 250.809 83.6969V86.1686M275.646 182.734L276.078 182.446C278.746 180.667 280.921 178.242 282.4 175.395L282.646 174.92C283.094 174.057 283.476 173.162 283.786 172.241L284.823 169.171C285.368 167.557 285.646 165.865 285.646 164.162C285.646 162.882 285.489 161.606 285.178 160.364L285.117 160.12C284.804 158.866 284.354 157.651 283.777 156.496L283.146 155.234M257.049 91.4595V95.7584L257.705 97.0812H258.362L258.691 96.4198V94.7664L259.019 93.7744L259.347 93.4437M263.616 96.4198V98.0732L264.273 99.3959L265.258 101.049H266.572L266.243 99.3959V97.7425M271.826 99.1585L272.154 101.711L272.483 102.041L272.811 103.695L273.796 104.356L275.11 102.372L275.767 100.719V99.7266M282.334 99.3959L282.991 102.372L283.319 103.364V105.348H284.304L285.946 104.687L286.275 101.049L287.917 99.7266L288.573 99.1585M292.539 48.3941L291.54 49.0639L291.207 50.0687M291.54 60.1163L290.874 58.7766V56.4322M238.936 48.0592L238.861 48.0891C237.846 48.4978 237.042 49.3048 236.638 50.322L236.605 50.4037L236.43 51.1087C236.326 51.5254 236.326 51.9612 236.43 52.3779C236.545 52.8393 236.782 53.2611 237.117 53.5983L237.604 54.0878M291.207 50.0687L290.874 52.7481V56.4322M291.207 50.0687L291.987 51.3762C292.132 51.6202 292.251 51.8794 292.34 52.1491L292.359 52.2057C292.478 52.565 292.539 52.9464 292.539 53.3249C292.539 53.6065 292.504 53.891 292.436 54.1643C292.285 54.7717 291.973 55.3269 291.531 55.7708L290.874 56.4322M287.282 72.0652L289.949 73.3886L291.135 73.8138C291.97 74.1132 292.699 74.6513 293.232 75.3612C293.486 75.6993 293.836 75.9521 294.237 76.0857L294.827 76.2824M287.282 72.0652L280.281 68.7567L278.28 67.4333L277.98 67.1024M287.282 72.0652V71.7344L287.339 71.5655C287.523 71.0173 287.663 70.4553 287.759 69.8849L287.817 69.5438C287.904 69.02 287.949 68.4897 287.949 67.9586V67.4936C287.949 67.0141 287.889 66.5364 287.772 66.0714L287.73 65.904C287.654 65.601 287.544 65.3074 287.404 65.0284L287.395 65.0111C287.101 64.4283 286.949 63.7848 286.949 63.1322M274.279 61.4779L275.28 64.1247L277.98 67.1024M274.279 61.4779L279.28 58.8311L281.614 57.1769L281.998 56.8911C282.623 56.4258 283.344 56.1055 284.109 55.9538L284.48 55.8802C284.57 55.8624 284.661 55.8534 284.752 55.8534H285.08C285.408 55.8534 285.708 56.0381 285.855 56.3309C285.917 56.452 285.948 56.5858 285.948 56.7214V57.8385L285.776 58.2653C285.449 59.0761 285.282 59.9421 285.282 60.8162V61.3987C285.282 61.8859 285.396 62.3663 285.615 62.8013M274.279 61.4779H266.611M266.611 61.4779L264.278 64.1247L263.791 64.7681C262.134 66.9605 260.026 68.7719 257.61 70.0801L256.439 70.8544C255.228 71.6558 254.162 72.6572 253.286 73.816C252.181 75.2786 250.774 76.4871 249.162 77.3598L248.912 77.4954C248.266 77.845 247.648 78.2444 247.064 78.6901L243.607 81.3291L243.108 81.8241C242.11 82.8145 241.224 83.9115 240.465 85.0952C239.673 86.3301 239.025 87.6515 238.533 89.0337L237.273 92.5782M266.611 61.4779L265.278 60.8162L263.201 59.6386C263.033 59.543 262.842 59.4928 262.648 59.4928C262.407 59.4928 262.173 59.4151 261.979 59.2712L259.61 57.5077L257.943 56.1843C257.729 55.9723 257.441 55.8534 257.14 55.8534H256.891C256.704 55.8534 256.519 55.8832 256.343 55.9417L254.609 56.5151L253.77 56.9316C253.442 57.094 253.143 57.3081 252.884 57.5655C252.701 57.747 252.498 57.9071 252.279 58.0428L251.351 58.6185C250.419 59.1964 249.602 59.9415 248.941 60.8162C248.279 61.692 247.773 62.6748 247.443 63.7219L247.274 64.2571L247.03 62.947C246.975 62.653 246.765 62.4121 246.481 62.3182C246.156 62.2108 245.799 62.3161 245.584 62.5824L243.642 64.9909C243.397 65.2948 243.119 65.5707 242.814 65.8134L242.714 65.8923C241.985 66.4716 241.389 67.2025 240.97 68.0345L240.606 68.7567L239.881 69.9568C239.701 70.2539 239.606 70.5945 239.606 70.9417V71.026C239.606 71.4794 239.787 71.914 240.109 72.2334C240.428 72.5495 240.858 72.7269 241.307 72.7269H241.607V71.5449C241.607 71.2427 241.727 70.9529 241.942 70.74C242.154 70.5292 242.441 70.411 242.741 70.411L242.94 70.411L243.031 70.05C243.155 69.5571 243.232 69.0538 243.261 68.5469C243.275 68.2976 243.476 68.095 243.726 68.095C244.29 68.095 244.832 68.3181 245.233 68.7158C245.482 68.9627 245.699 69.2392 245.88 69.5391L246.002 69.74C246.398 70.3954 246.608 71.1466 246.608 71.9125C246.608 72.4504 246.504 72.9834 246.303 73.4823L246.212 73.7089C246.032 74.1551 245.794 74.5756 245.504 74.9595L244.397 76.4235C244.094 76.8251 243.84 77.2616 243.64 77.7237L243.604 77.8071C243.17 78.8123 242.468 79.6789 241.574 80.3121C240.935 80.7652 240.392 81.3394 239.974 82.0023L238.94 83.6451L237.273 85.6302C236.623 86.489 236.272 87.5361 236.272 88.6125V88.9908C236.272 90.2554 236.618 91.496 237.273 92.5782M237.273 92.5782C238.591 94.3231 240.263 95.7708 242.178 96.8268L242.273 96.8793M242.273 96.8793L247.941 92.5782L249.775 91.9165M242.273 96.8793V106.474L242.607 111.106L242.94 113.753L243.432 116.194C243.548 116.771 243.607 117.358 243.607 117.946C243.607 118.677 243.697 119.405 243.876 120.113L244.274 121.693L244.941 124.009L245.274 125.994L245.475 127.39C245.563 128.003 245.607 128.621 245.607 129.24C245.607 130.162 245.705 131.08 245.9 131.981L246.197 133.355C246.47 134.622 246.838 135.867 247.296 137.08L247.608 137.905L249.942 142.868L250.089 143.218C251.097 145.619 252.438 147.867 254.073 149.895L254.452 150.366C255.222 151.321 255.906 152.342 256.497 153.416L256.923 154.192C257.38 155.022 257.926 155.799 258.552 156.509C259.474 157.554 260.558 158.443 261.764 159.141L262.312 159.459C263.396 160.086 264.556 160.569 265.764 160.896C266.99 161.228 268.255 161.396 269.525 161.396H270.232C271.372 161.396 272.51 161.297 273.633 161.1L276.281 160.637C277.165 160.482 278.022 160.201 278.826 159.802C280.218 159.111 281.417 158.084 282.313 156.813L283.281 155.44L283.954 154.392C285.058 152.67 285.97 150.832 286.674 148.911L286.949 148.162C288.043 145.12 288.615 141.877 288.615 138.645V137.263C288.615 135.928 288.52 134.595 288.33 133.274L287.93 130.5C287.721 129.042 287.396 127.604 286.96 126.197L286.282 124.009L285.282 120.039L285.021 118.746C284.75 117.404 284.382 116.084 283.919 114.796L282.948 112.099L281.948 108.459L281.24 105.182C281.045 104.281 280.947 103.363 280.947 102.441C280.947 101.822 280.992 101.204 281.08 100.591L281.281 99.1952M278.614 99.1952H274.946L271.612 98.8644L267.945 98.2027L265.611 97.2101L262.277 95.225L260.277 93.9016L257.61 91.9165L255.609 89.6005L254.276 88.9388L251.942 90.9239L251.609 91.2547L249.775 91.9165M278.614 99.1952H281.281M278.614 99.1952L277.947 101.511L277.28 103.165L276.947 104.158M281.281 99.1952H287.949L290.282 98.8644H290.949M257.943 66.7716L259.943 64.1247L257.943 62.1396L255.609 61.1471L253.276 61.4779L250.608 62.8013L249.275 64.4556L248.941 65.779V70.411L250.608 72.0652H251.609L253.609 70.7418M277.98 67.1024V66.262C277.98 65.3163 278.352 64.4085 279.014 63.7339C279.191 63.5538 279.387 63.3928 279.597 63.2535L280.013 62.9782C280.84 62.4313 281.809 62.1396 282.801 62.1396C283.34 62.1396 283.875 62.2259 284.387 62.3952L285.615 62.8013M285.615 62.8013L286.949 63.1322M286.949 63.1322L287.949 58.8311L288.282 55.5226V50.8906L287.282 49.2363L285.282 47.2512L283.615 45.9278L282.614 44.6044L281.614 43.6118L280.947 42.2884L278.947 42.6193M285.282 70.7418L285.532 69.2501C285.587 68.9217 285.615 68.5893 285.615 68.2564V67.1081C285.615 66.4603 285.404 65.8303 285.013 65.3135L284.816 65.0532C284.684 64.8775 284.514 64.7331 284.319 64.6301C283.878 64.3967 283.351 64.3967 282.91 64.6301L282.741 64.7195C282.657 64.7641 282.576 64.815 282.499 64.872L281.281 65.779L281.739 65.9307C282.08 66.0435 282.348 66.3103 282.463 66.6509L282.516 66.8099C282.579 66.9971 282.564 67.2017 282.475 67.378C282.355 67.6165 282.373 67.9013 282.522 68.123L282.948 68.7567L283.615 70.0801M278.947 42.6193H278.651C278.446 42.6193 278.28 42.7853 278.28 42.9902C278.28 43.3954 278.16 43.7915 277.934 44.1278L277.613 44.6044L276.612 43.8592C276.391 43.6945 276.182 43.5143 275.986 43.32L275.226 42.5661C274.62 41.9644 273.8 41.6267 272.946 41.6267H269.612C268.742 41.6267 267.891 41.8826 267.166 42.3626L266.892 42.5438C266.484 42.8135 266.043 43.0279 265.579 43.1814L264.278 43.6118L262.688 44.4006C262.436 44.5254 262.277 44.782 262.277 45.0628C262.277 45.3816 262.073 45.6645 261.77 45.7647L261.433 45.8762C261.329 45.9104 261.231 45.9582 261.14 46.0183L259.559 47.0643C259.376 47.1854 259.239 47.3642 259.169 47.5723C259.034 47.9735 258.658 48.2438 258.235 48.2438H257.314C256.863 48.2438 256.43 48.0654 256.109 47.7475L255.846 47.486C255.694 47.3356 255.489 47.2512 255.276 47.2512C255.062 47.2512 254.857 47.1668 254.706 47.0164L254.158 46.4727C254.015 46.3309 253.85 46.213 253.67 46.1235C253.411 45.9948 253.125 45.9278 252.835 45.9278H252.609C252.17 45.9278 251.738 46.0292 251.345 46.2241L251.153 46.3192C250.792 46.4982 250.463 46.7341 250.177 47.0178L249.467 47.7218C248.782 48.4022 248.608 49.4086 248.608 50.3745V50.8906M278.947 42.6193L278.614 41.2959M248.608 50.8906V51.8832L249.275 52.5449M248.608 50.8906L247.997 50.739C247.517 50.6199 247.051 50.4488 246.608 50.2289L245.96 49.8001C245.73 49.6482 245.461 49.5672 245.185 49.5672C244.815 49.5672 244.46 49.4208 244.197 49.16L243.94 48.9055C244.603 48.2481 245.499 47.7703 245.93 46.9421C245.934 46.9339 245.938 46.9256 245.942 46.9173L246.401 46.0063C246.564 45.6832 246.764 45.3823 246.997 45.1093C247.532 44.4814 248.496 44.385 249.081 43.8039L249.359 43.5277C249.738 43.152 250.224 42.9034 250.75 42.8163L251.304 42.7248C251.727 42.6548 252.137 42.5224 252.521 42.3318L252.609 42.2884V43.9427H252.942L253.609 44.9352H254.609L256.296 44.3076C256.92 44.0751 257.418 43.5904 257.667 42.9723C257.847 42.5269 258.157 42.1466 258.558 41.8816L258.736 41.7636C258.873 41.673 259.025 41.6065 259.184 41.567L259.657 41.4497C260.021 41.3593 260.277 41.0322 260.277 40.6568C260.277 40.642 260.281 40.6276 260.289 40.6154L260.517 40.2768C260.799 39.8564 261.151 39.4871 261.557 39.1848C262.032 38.8312 262.573 38.5756 263.148 38.433L263.611 38.3182H264.278M278.614 41.2959L278.334 41.1572M278.614 41.2959L278.751 42.1208M278.334 41.1572C278.114 41.0481 277.93 40.879 277.803 40.6705C277.785 40.6407 277.768 40.6101 277.752 40.5787M278.334 41.1572C278.146 41.0637 277.984 40.9262 277.861 40.7575C277.821 40.7012 277.784 40.6414 277.752 40.5787M277.752 40.5787L277.65 40.3767C277.626 40.3284 277.613 40.2752 277.613 40.2211M277.29 39.1606L276.947 38.6491L276.654 38.3584M277.29 39.1606C277.317 39.1998 277.341 39.2398 277.365 39.2807C277.527 39.5666 277.613 39.8906 277.613 40.2211M277.29 39.1606C277.501 39.4742 277.613 39.8433 277.613 40.2211M276.654 38.3584C276.453 38.1592 276.169 38.0735 275.896 38.1232M276.654 38.3584C276.586 38.2909 276.509 38.2366 276.425 38.196C276.262 38.1167 276.077 38.0903 275.896 38.1232M274.906 37.9472C274.934 37.9756 274.965 38.0018 274.997 38.0255C275.219 38.1918 275.511 38.2416 275.78 38.1528M274.906 37.9472C274.992 38.0325 275.093 38.0971 275.202 38.1391C275.384 38.209 275.588 38.2162 275.78 38.1528M274.906 37.9472L274.456 37.5013M274.456 37.5013C274.15 37.1971 273.742 37.0181 273.313 36.9969M274.456 37.5013C274.325 37.3704 274.174 37.2627 274.011 37.1807C273.795 37.0723 273.558 37.009 273.313 36.9969M271.196 36.4161C270.483 36.1801 269.722 36.1361 268.99 36.2857C268.885 36.3071 268.781 36.3324 268.678 36.3617L268.557 36.3958M271.196 36.4161C271.196 36.4161 271.196 36.4161 271.196 36.4161ZM271.196 36.4161L272.679 36.9065C272.701 36.9138 272.723 36.9206 272.746 36.9271C272.902 36.972 273.064 36.9948 273.227 36.9948M268.557 36.3958C268.015 36.5497 267.514 36.822 267.09 37.1919C267.03 37.2447 266.971 37.2996 266.914 37.3563M268.557 36.3958C267.937 36.5717 267.371 36.9022 266.914 37.3563M266.914 37.3563L266.722 37.5469M266.722 37.5469C266.448 37.8185 266.119 38.0271 265.757 38.1585C265.733 38.1673 265.709 38.1757 265.684 38.1837M266.722 37.5469C266.43 37.8366 266.075 38.0546 265.684 38.1837M264.278 38.3182H264.85C264.867 38.3182 264.885 38.318 264.903 38.3177M264.278 38.3182L263.671 38.3182C263.631 38.3182 263.591 38.3231 263.553 38.3327C262.714 38.5406 261.938 38.946 261.289 39.5151L261.067 39.7093M245.607 94.5633L246.274 100.188L247.694 107.467M248.275 110.444L248.941 115.076M258.276 140.552L259.353 141.486C260.367 142.367 261.54 143.045 262.809 143.484M274.678 143.909L273.083 144.197C271.883 144.413 270.665 144.522 269.445 144.522M274.678 143.909L274.946 143.86M274.678 143.909L274.279 138.567L274.946 136.251L275.613 137.243L276.28 138.567L280.281 141.514M274.678 143.909L274.946 147.5V150.147L277.613 149.485H278.614L280.947 146.838L281.948 144.522L280.281 141.514M283.42 134.414L283.499 132.461C283.575 130.595 283.274 128.734 282.614 126.987M283.42 134.414L284.615 134.597H285.948V135.92L285.282 138.567L282.748 137.243M283.42 134.414L280.281 133.935L280.114 134.597L280.281 136.251L282.748 137.243M276.947 104.158L277.347 107.936C277.524 109.598 277.951 111.225 278.614 112.76M276.947 104.158L276.927 104.177C276.498 104.603 276.004 104.957 275.463 105.225C274.684 105.611 273.815 105.812 272.946 105.812H272.529C271.742 105.812 271 106.181 270.525 106.809C270.362 107.025 270.235 107.267 270.148 107.524L269.612 109.121C269.169 110.219 268.878 111.371 268.747 112.548L268.612 113.753V123.678L268.278 126.325L266.945 131.288L266.611 125.994L266.278 120.039V114.414L266.519 110.118C266.579 109.031 266.354 107.948 265.864 106.976L265.818 106.885C265.68 106.611 265.518 106.351 265.334 106.107L265.201 105.932C264.813 105.418 264.311 105.002 263.734 104.715C263.431 104.565 263.147 104.378 262.889 104.159L261.893 103.311C261.261 102.774 260.586 102.291 259.873 101.866L259.277 101.511C258.624 101.08 257.859 100.849 257.077 100.849H256.943C256.066 100.849 255.2 100.647 254.415 100.257L254.276 100.188C253.185 99.5385 252.265 98.6271 251.609 97.541C250.943 95.9995 250.402 94.4069 249.992 92.7787L249.775 91.9165M249.608 117.392L250.608 123.678M255.609 136.913L254.296 132.133C253.843 130.486 253.04 128.957 251.942 127.649M255.609 136.913L253.609 137.905L251.942 138.567L252.609 140.221L254.276 142.206L255.609 144.522L256.943 142.868V142.206L258.943 139.559L258.276 136.913L259.277 134.597H258.943L257.61 135.258L256.943 136.251L255.609 136.913ZM262.809 143.484L263.277 142.206L267.945 138.567L269.612 142.206V143.53L268.945 145.846L268.612 148.162V151.139L266.945 151.801H264.611L260.944 148.162L261.944 145.846L262.809 143.484ZM262.809 143.484C262.854 143.499 262.899 143.515 262.944 143.53M280.281 141.514C280.18 141.333 280.202 141.109 280.332 140.948C280.801 140.366 281.231 139.752 281.618 139.112L282.748 137.243M282.614 126.987H285.282L284.615 124.671L282.17 125.333M282.614 126.987H280.281L279.28 126.325L282.17 125.333M282.17 125.333L281.281 122.686L280.947 121.032M280.614 119.377L279.077 114.414M279.077 114.414H280.947V112.099L278.614 112.76M279.077 114.414H276.28V113.753L278.614 112.76M280.947 121.032H279.28L278.947 120.37L279.28 120.039L282.748 119.046L283.281 121.032H280.947ZM273.227 36.9948C273.256 36.9948 273.285 36.9955 273.313 36.9969M273.227 36.9948C273.227 36.9948 273.227 36.9948 273.227 36.9948ZM275.896 38.1232C275.857 38.1302 275.818 38.1401 275.78 38.1528M275.78 38.1528C275.78 38.1528 275.78 38.1528 275.78 38.1528ZM265.684 38.1837C265.432 38.2672 265.168 38.3124 264.903 38.3177M265.684 38.1837C265.592 38.2144 265.497 38.2399 265.402 38.2602C265.238 38.2951 265.071 38.3143 264.903 38.3177M246.992 28.9579V27.1881C246.992 26.8662 247.147 26.564 247.408 26.3761L250.441 24.1959C250.56 24.1108 250.658 24.0009 250.729 23.8739L252.185 21.2843C252.242 21.1836 252.315 21.0934 252.403 21.0179L254.83 18.9184C254.883 18.8726 254.931 18.8213 254.974 18.7655L257.566 15.3396C257.619 15.2697 257.681 15.207 257.75 15.1532L258.731 14.3918C258.822 14.3208 258.901 14.2344 258.963 14.1364L260.364 11.9206C260.465 11.7607 260.519 11.5754 260.519 11.3861V10.7368C260.519 10.5009 260.602 10.2726 260.754 10.0922L262.118 8.47436C262.152 8.43486 262.182 8.39285 262.209 8.34869L264.148 5.15424M246.992 28.9579L245.716 32.1088C245.687 32.1818 245.666 32.2581 245.654 32.336L245.146 35.7342M246.992 28.9579C247.538 28.9579 247.982 29.4011 247.982 29.9478V34.0832M264.148 5.15424L266.457 3.84993M264.148 5.15424L265.095 8.273C265.123 8.36717 265.138 8.46504 265.138 8.56345V10.1371C265.138 10.2892 265.088 10.4371 264.996 10.5582C264.648 11.0169 264.975 11.6758 265.551 11.6758H265.691C266.114 11.6758 266.457 11.3328 266.457 10.9096V3.84993M266.457 3.84993L269.757 11.6758L271.028 14.1894C271.06 14.2526 271.099 14.3122 271.143 14.3672L272.326 15.8285C272.373 15.8859 272.425 15.9379 272.483 15.9837L273.912 17.1133C274 17.1833 274.077 17.2679 274.137 17.3633L275.695 19.8277L276.685 21.4581L278.665 24.0668L279.984 26.0232M279.984 26.0232L282.954 29.9362L284.603 32.2187L286.646 35.7342M279.984 26.0232V29.6976C279.984 29.8545 280.021 30.0091 280.092 30.149L280.644 31.2405L281.634 32.8709L282.146 33.7342M274.855 34.3949L274.587 31.8853C274.551 31.546 274.322 31.2582 273.999 31.1466C273.716 31.0483 273.501 30.8123 273.431 30.5203L273.256 29.7905C273.229 29.6819 273.185 29.5784 273.125 29.4844L272.613 28.6873C272.578 28.6323 272.537 28.581 272.492 28.5339L272.045 28.0691C271.952 27.973 271.88 27.8593 271.832 27.7349L271.249 26.2205L270.692 25.0636C270.627 24.9283 270.593 24.7801 270.593 24.6299V23.3116C270.593 23.2079 270.577 23.1048 270.545 23.006L270.313 22.2823C270.281 22.1835 270.265 22.0804 270.265 21.9767V21.3783C270.265 21.0051 270.057 20.6629 269.726 20.4909L269.317 20.2786C269.094 20.1625 268.954 19.9316 268.954 19.6797M245.555 107.663H249.824L251.466 108.655L249.824 109.647L246.54 111.962V109.647L245.555 107.663ZM247.197 115.268L248.182 119.567L249.167 117.914H249.824L252.123 117.253L251.466 115.93V115.268H247.197ZM249.167 124.858L250.809 123.866H254.422V124.858H255.407L253.765 125.52L251.466 128.165L250.809 129.157L249.824 130.149L249.167 126.181V124.858ZM253.449 63.8864L253.31 63.9259C252.847 64.0572 252.415 64.2787 252.038 64.5779C251.332 65.1381 250.859 65.9399 250.71 66.8285L250.645 67.2155C250.621 67.3605 250.608 67.5071 250.608 67.6541V67.9574C250.608 68.469 250.813 68.9594 251.176 69.3197L251.223 69.367C251.67 69.8098 252.314 69.9877 252.924 69.8364C253.156 69.7789 253.374 69.6759 253.566 69.5333L254.609 68.7567L254.631 68.7425C255.272 68.3182 255.791 67.7337 256.137 67.047L256.39 66.5455C256.534 66.2591 256.609 65.9428 256.609 65.6221V64.8436C256.609 64.603 256.483 64.3802 256.276 64.2571C255.425 63.7502 254.402 63.6162 253.449 63.8864ZM264.762 13.1253L263.887 13.9724C263.85 14.0083 263.817 14.0478 263.787 14.0904L263.22 14.9149C263.168 14.9896 263.127 15.0708 263.098 15.1565L262.453 17.0294L262.109 18.364L261.764 20.0323L261.075 22.368L260.549 23.8973C260.447 24.1948 260.21 24.4268 259.911 24.5235L259.745 24.5769C259.494 24.6581 259.285 24.8352 259.164 25.0699L258.775 25.8224C258.702 25.9642 258.664 26.1215 258.664 26.2811V28.1162C258.664 28.2809 258.597 28.4385 258.479 28.5531C258.213 28.8107 258.237 29.2441 258.53 29.4708L258.861 29.7274C259.271 30.0456 259.873 29.866 260.042 29.3748L260.322 28.2901C260.364 28.1262 260.364 27.9542 260.322 27.7903L260.187 27.2689C260.098 26.9207 260.202 26.551 260.46 26.3007L261.024 25.7542C261.058 25.7211 261.09 25.6857 261.119 25.6481L261.983 24.5328C262.066 24.4253 262.126 24.3021 262.16 24.1705L262.453 23.0352L262.798 21.3669L263.098 20.2036C263.127 20.0903 263.176 19.983 263.243 19.8866L263.717 19.1979C263.792 19.088 263.845 18.9639 263.872 18.8332L264.155 17.4631C264.169 17.3965 264.176 17.3288 264.176 17.2608V15.7933C264.176 15.6134 264.224 15.4368 264.316 15.2821L264.812 14.4485C264.847 14.3897 264.876 14.3274 264.898 14.2627L265.195 13.4008C265.205 13.3731 265.209 13.3441 265.209 13.3149C265.209 13.0818 264.929 12.9631 264.762 13.1253ZM268.261 13.0679L268.356 13.1675C268.401 13.2151 268.439 13.2696 268.467 13.3289L268.746 13.915L269.028 14.8048C269.054 14.887 269.091 14.9654 269.137 15.0382L269.621 15.8007C269.68 15.8943 269.724 15.9971 269.749 16.1049L269.97 17.0309C270.011 17.2028 270.096 17.3608 270.218 17.4889L270.956 18.2641C270.982 18.2916 270.997 18.3281 270.997 18.366C270.997 18.5349 271.234 18.5716 271.285 18.4107L271.603 17.4101C271.627 17.3351 271.621 17.2539 271.587 17.1829L271.318 16.6177L271.067 15.8241C271.021 15.6794 270.942 15.5471 270.838 15.4371L270.191 14.7578C270.087 14.6479 270.008 14.5155 269.962 14.3708L269.78 13.7971C269.735 13.6524 269.656 13.52 269.552 13.4101L269.104 12.9395C269.08 12.9142 269.058 12.8867 269.04 12.8572L268.871 12.5918C268.694 12.313 268.272 12.3678 268.173 12.6825C268.13 12.8176 268.164 12.9653 268.261 13.0679ZM268.22 16.9239L268.103 17.2934L267.781 17.9691L267.17 19.576C267.149 19.6307 267.133 19.6872 267.122 19.7448L266.835 21.2548C266.823 21.3164 266.817 21.379 266.817 21.4418V23.0366L266.195 27.612C266.181 27.7143 266.151 27.8138 266.107 27.907L265.898 28.3466C265.868 28.4101 265.844 28.4765 265.828 28.5448L265.57 29.6305C265.544 29.7383 265.5 29.8412 265.441 29.9348L264.299 31.735C264.263 31.7918 264.233 31.8521 264.209 31.915L263.826 32.9208C263.689 33.2806 263.771 33.6871 264.036 33.966L264.427 34.377C264.842 34.8131 265.546 34.7863 265.926 34.3197L267.036 32.9592C267.104 32.8762 267.158 32.7829 267.196 32.6829L267.781 31.1447L268.377 29.268C268.408 29.1684 268.455 29.0744 268.516 28.9894L269.262 27.9449C269.346 27.8273 269.403 27.6929 269.43 27.5509L269.68 26.2373C269.7 26.1313 269.703 26.0226 269.689 25.9156L269.389 23.7123V21.4648C269.389 21.3868 269.38 21.3091 269.362 21.2333L269.092 20.0989C269.076 20.0305 269.052 19.9641 269.022 19.9007L268.522 18.8486C268.458 18.7144 268.425 18.5676 268.425 18.4189V16.9555C268.425 16.836 268.256 16.81 268.22 16.9239ZM260.5 30.3678L261.342 29.0553C261.389 28.9823 261.426 28.9034 261.453 28.8208L261.7 28.048C261.727 27.9653 261.764 27.8865 261.811 27.8134L262.305 27.0437C262.365 26.9497 262.41 26.8462 262.436 26.7376L262.713 25.5846C262.72 25.5549 262.735 25.5277 262.756 25.5057C262.864 25.3943 263.052 25.4702 263.052 25.6248V26.7822C263.052 27.0363 263.258 27.2423 263.512 27.2423H263.569C263.658 27.2423 263.742 27.2063 263.804 27.1425C264.007 26.9316 264.363 27.0753 264.363 27.3682V27.5116C264.363 27.5587 264.355 27.6054 264.338 27.6493L263.708 29.2859L263.177 30.9405C263.097 31.1897 262.922 31.3972 262.689 31.5178C262.499 31.6166 262.346 31.7746 262.253 31.9678L262.082 32.3223C262.073 32.3414 262.068 32.3623 262.068 32.3834C262.068 32.5042 261.926 32.569 261.835 32.49L260.659 31.4719C260.339 31.1947 260.271 30.7243 260.5 30.3678ZM256.537 17.8879L256.728 17.9872C256.985 18.1207 257.172 18.3591 257.24 18.6406L257.436 19.4561C257.452 19.525 257.476 19.592 257.507 19.6558L257.719 20.0966C257.765 20.1922 257.826 20.2799 257.9 20.3564L258.018 20.4795C258.083 20.5471 258.137 20.6246 258.178 20.7092L258.265 20.8902C258.373 21.1142 258.33 21.3816 258.158 21.5607C258.13 21.5891 258.1 21.6147 258.068 21.6371L257.39 22.1067C257.223 22.2225 257.024 22.2846 256.821 22.2846H256.752C256.384 22.2846 256.048 22.4956 255.888 22.8274C255.844 22.9191 255.786 23.0031 255.715 23.0764L255.461 23.3405C255.272 23.5363 255.012 23.647 254.74 23.647H254.098C253.938 23.647 253.78 23.6084 253.638 23.5344L253.371 23.3959C253.258 23.3371 253.132 23.3064 253.004 23.3064C252.916 23.3064 252.828 23.3212 252.744 23.3501L251.915 23.6374C251.896 23.6438 251.878 23.6515 251.861 23.6605C251.499 23.8485 251.119 23.4408 251.332 23.093L252.8 20.6971C252.847 20.6204 252.904 20.5504 252.97 20.489L255.853 17.7929C256.018 17.6394 256.275 17.6462 256.43 17.8081C256.461 17.8403 256.497 17.8673 256.537 17.8879ZM257.147 16.603L257.372 16.5253C257.43 16.5049 257.483 16.471 257.526 16.4262L257.585 16.3652C257.715 16.2301 257.895 16.1538 258.082 16.1538C258.463 16.1538 258.772 16.4627 258.772 16.8438V17.0672C258.772 17.1392 258.764 17.2109 258.747 17.2809L258.508 18.272C258.467 18.444 258.486 18.625 258.563 18.7845L258.641 18.9457C258.721 19.1129 258.89 19.2192 259.076 19.2192C259.286 19.2192 259.472 19.0836 259.536 18.8838L259.984 17.4877C260.043 17.3017 260.216 17.1755 260.412 17.1755C260.607 17.1755 260.78 17.0494 260.84 16.8634L261.02 16.3028C261.051 16.204 261.067 16.101 261.067 15.9972V15.6739C261.067 15.5414 261.038 15.4105 260.98 15.2911C260.833 14.9856 260.524 14.7913 260.185 14.7913H258.542C258.27 14.7913 258.01 14.902 257.822 15.0978L256.838 16.1197C256.816 16.1423 256.798 16.1681 256.785 16.1963C256.671 16.4327 256.899 16.6889 257.147 16.603Z" stroke="white"/>
<path d="M109.088 263.182C108.964 262.138 108.463 261.328 107.585 260.751C106.706 260.175 105.628 259.886 104.351 259.886C103.417 259.886 102.6 260.037 101.9 260.339C101.206 260.642 100.664 261.057 100.273 261.586C99.8883 262.114 99.696 262.715 99.696 263.388C99.696 263.951 99.8299 264.435 100.098 264.84C100.372 265.238 100.722 265.571 101.148 265.839C101.574 266.1 102.02 266.316 102.487 266.488C102.954 266.652 103.383 266.786 103.774 266.889L105.916 267.466C106.465 267.61 107.076 267.809 107.749 268.063C108.429 268.317 109.078 268.664 109.696 269.103C110.32 269.536 110.835 270.092 111.24 270.772C111.645 271.451 111.848 272.286 111.848 273.274C111.848 274.414 111.549 275.444 110.952 276.364C110.362 277.284 109.497 278.015 108.357 278.557C107.224 279.1 105.848 279.371 104.227 279.371C102.717 279.371 101.409 279.127 100.304 278.64C99.2051 278.152 98.3401 277.472 97.7085 276.6C97.0837 275.729 96.7301 274.716 96.6477 273.562H99.2841C99.3527 274.359 99.6205 275.018 100.087 275.54C100.561 276.055 101.158 276.439 101.879 276.693C102.607 276.94 103.39 277.064 104.227 277.064C105.202 277.064 106.078 276.906 106.853 276.59C107.629 276.268 108.244 275.821 108.697 275.251C109.15 274.675 109.376 274.002 109.376 273.233C109.376 272.533 109.181 271.963 108.789 271.523C108.398 271.084 107.883 270.727 107.245 270.452C106.606 270.178 105.916 269.937 105.175 269.732L102.58 268.99C100.932 268.516 99.6274 267.84 98.6662 266.961C97.705 266.083 97.2244 264.933 97.2244 263.511C97.2244 262.33 97.5437 261.301 98.1822 260.422C98.8275 259.536 99.6926 258.85 100.777 258.362C101.869 257.868 103.088 257.621 104.433 257.621C105.793 257.621 107.001 257.864 108.058 258.352C109.116 258.833 109.953 259.492 110.571 260.329C111.196 261.167 111.525 262.118 111.56 263.182H109.088ZM116.047 279V257.909H123.174C124.828 257.909 126.181 258.208 127.231 258.805C128.288 259.395 129.071 260.195 129.579 261.205C130.087 262.214 130.341 263.34 130.341 264.582C130.341 265.825 130.087 266.954 129.579 267.971C129.078 268.987 128.302 269.797 127.252 270.401C126.201 270.998 124.856 271.297 123.215 271.297H118.107V269.031H123.132C124.265 269.031 125.175 268.836 125.861 268.444C126.548 268.053 127.046 267.524 127.355 266.858C127.67 266.185 127.828 265.427 127.828 264.582C127.828 263.738 127.67 262.983 127.355 262.317C127.046 261.651 126.545 261.129 125.851 260.751C125.158 260.367 124.238 260.175 123.091 260.175H118.601V279H116.047ZM137.009 257.909V279H134.455V257.909H137.009ZM158.855 257.909V279H156.383L144.89 262.44H144.684V279H142.13V257.909H144.602L156.136 274.51H156.342V257.909H158.855ZM181.761 268.455C181.761 270.679 181.359 272.601 180.556 274.222C179.752 275.842 178.65 277.091 177.25 277.97C175.849 278.849 174.25 279.288 172.451 279.288C170.652 279.288 169.052 278.849 167.652 277.97C166.251 277.091 165.149 275.842 164.346 274.222C163.543 272.601 163.141 270.679 163.141 268.455C163.141 266.23 163.543 264.308 164.346 262.688C165.149 261.067 166.251 259.818 167.652 258.939C169.052 258.06 170.652 257.621 172.451 257.621C174.25 257.621 175.849 258.06 177.25 258.939C178.65 259.818 179.752 261.067 180.556 262.688C181.359 264.308 181.761 266.23 181.761 268.455ZM179.289 268.455C179.289 266.628 178.983 265.087 178.372 263.831C177.768 262.574 176.948 261.623 175.911 260.978C174.881 260.333 173.728 260.01 172.451 260.01C171.174 260.01 170.017 260.333 168.98 260.978C167.951 261.623 167.13 262.574 166.519 263.831C165.915 265.087 165.613 266.628 165.613 268.455C165.613 270.281 165.915 271.822 166.519 273.078C167.13 274.335 167.951 275.286 168.98 275.931C170.017 276.576 171.174 276.899 172.451 276.899C173.728 276.899 174.881 276.576 175.911 275.931C176.948 275.286 177.768 274.335 178.372 273.078C178.983 271.822 179.289 270.281 179.289 268.455ZM197.589 263.182C197.465 262.138 196.964 261.328 196.085 260.751C195.207 260.175 194.129 259.886 192.852 259.886C191.918 259.886 191.101 260.037 190.401 260.339C189.707 260.642 189.165 261.057 188.774 261.586C188.389 262.114 188.197 262.715 188.197 263.388C188.197 263.951 188.331 264.435 188.599 264.84C188.873 265.238 189.223 265.571 189.649 265.839C190.075 266.1 190.521 266.316 190.988 266.488C191.455 266.652 191.884 266.786 192.275 266.889L194.417 267.466C194.966 267.61 195.577 267.809 196.25 268.063C196.93 268.317 197.579 268.664 198.197 269.103C198.821 269.536 199.336 270.092 199.741 270.772C200.146 271.451 200.349 272.286 200.349 273.274C200.349 274.414 200.05 275.444 199.453 276.364C198.863 277.284 197.998 278.015 196.858 278.557C195.725 279.1 194.349 279.371 192.728 279.371C191.218 279.371 189.91 279.127 188.805 278.64C187.706 278.152 186.841 277.472 186.209 276.6C185.585 275.729 185.231 274.716 185.149 273.562H187.785C187.854 274.359 188.121 275.018 188.588 275.54C189.062 276.055 189.659 276.439 190.38 276.693C191.108 276.94 191.891 277.064 192.728 277.064C193.703 277.064 194.579 276.906 195.354 276.59C196.13 276.268 196.745 275.821 197.198 275.251C197.651 274.675 197.877 274.002 197.877 273.233C197.877 272.533 197.682 271.963 197.29 271.523C196.899 271.084 196.384 270.727 195.746 270.452C195.107 270.178 194.417 269.937 193.676 269.732L191.081 268.99C189.433 268.516 188.128 267.84 187.167 266.961C186.206 266.083 185.725 264.933 185.725 263.511C185.725 262.33 186.045 261.301 186.683 260.422C187.329 259.536 188.194 258.85 189.278 258.362C190.37 257.868 191.589 257.621 192.934 257.621C194.294 257.621 195.502 257.864 196.559 258.352C197.617 258.833 198.454 259.492 199.072 260.329C199.697 261.167 200.026 262.118 200.061 263.182H197.589ZM222.344 268.455C222.344 270.679 221.942 272.601 221.139 274.222C220.335 275.842 219.233 277.091 217.833 277.97C216.432 278.849 214.833 279.288 213.034 279.288C211.235 279.288 209.635 278.849 208.235 277.97C206.834 277.091 205.732 275.842 204.929 274.222C204.126 272.601 203.724 270.679 203.724 268.455C203.724 266.23 204.126 264.308 204.929 262.688C205.732 261.067 206.834 259.818 208.235 258.939C209.635 258.06 211.235 257.621 213.034 257.621C214.833 257.621 216.432 258.06 217.833 258.939C219.233 259.818 220.335 261.067 221.139 262.688C221.942 264.308 222.344 266.23 222.344 268.455ZM219.872 268.455C219.872 266.628 219.566 265.087 218.955 263.831C218.351 262.574 217.531 261.623 216.494 260.978C215.464 260.333 214.311 260.01 213.034 260.01C211.757 260.01 210.6 260.333 209.563 260.978C208.534 261.623 207.713 262.574 207.102 263.831C206.498 265.087 206.196 266.628 206.196 268.455C206.196 270.281 206.498 271.822 207.102 273.078C207.713 274.335 208.534 275.286 209.563 275.931C210.6 276.576 211.757 276.899 213.034 276.899C214.311 276.899 215.464 276.576 216.494 275.931C217.531 275.286 218.351 274.335 218.955 273.078C219.566 271.822 219.872 270.281 219.872 268.455ZM226.638 279V257.909H233.764C235.412 257.909 236.765 258.191 237.822 258.754C238.879 259.31 239.662 260.075 240.17 261.05C240.678 262.025 240.932 263.134 240.932 264.376C240.932 265.619 240.678 266.721 240.17 267.682C239.662 268.643 238.883 269.399 237.832 269.948C236.782 270.49 235.44 270.761 233.806 270.761H228.039V268.455H233.723C234.849 268.455 235.755 268.29 236.442 267.96C237.135 267.631 237.637 267.164 237.945 266.56C238.261 265.949 238.419 265.221 238.419 264.376C238.419 263.532 238.261 262.794 237.945 262.162C237.63 261.531 237.125 261.043 236.432 260.7C235.738 260.35 234.822 260.175 233.682 260.175H229.192V279H226.638ZM236.566 269.526L241.756 279H238.79L233.682 269.526H236.566ZM253.921 267.322V269.587H244.693V267.322H253.921ZM258.527 279V257.909H265.653C267.301 257.909 268.653 258.191 269.711 258.754C270.768 259.31 271.551 260.075 272.059 261.05C272.567 262.025 272.821 263.134 272.821 264.376C272.821 265.619 272.567 266.721 272.059 267.682C271.551 268.643 270.771 269.399 269.721 269.948C268.67 270.49 267.328 270.761 265.694 270.761H259.927V268.455H265.612C266.738 268.455 267.644 268.29 268.331 267.96C269.024 267.631 269.525 267.164 269.834 266.56C270.15 265.949 270.308 265.221 270.308 264.376C270.308 263.532 270.15 262.794 269.834 262.162C269.518 261.531 269.014 261.043 268.32 260.7C267.627 260.35 266.71 260.175 265.571 260.175H261.081V279H258.527ZM268.454 269.526L273.645 279H270.679L265.571 269.526H268.454ZM277.076 279V257.909H289.805V260.175H279.63V267.301H289.146V269.567H279.63V276.734H289.97V279H277.076ZM311.38 264.5H308.826C308.675 263.765 308.411 263.12 308.033 262.564C307.662 262.008 307.209 261.541 306.674 261.163C306.145 260.779 305.558 260.491 304.913 260.298C304.267 260.106 303.595 260.01 302.894 260.01C301.617 260.01 300.46 260.333 299.424 260.978C298.394 261.623 297.573 262.574 296.962 263.831C296.358 265.087 296.056 266.628 296.056 268.455C296.056 270.281 296.358 271.822 296.962 273.078C297.573 274.335 298.394 275.286 299.424 275.931C300.46 276.576 301.617 276.899 302.894 276.899C303.595 276.899 304.267 276.803 304.913 276.611C305.558 276.419 306.145 276.134 306.674 275.756C307.209 275.372 307.662 274.901 308.033 274.345C308.411 273.782 308.675 273.137 308.826 272.409H311.38C311.188 273.487 310.838 274.452 310.33 275.303C309.822 276.154 309.19 276.879 308.435 277.476C307.68 278.066 306.832 278.516 305.891 278.825C304.957 279.134 303.958 279.288 302.894 279.288C301.095 279.288 299.496 278.849 298.095 277.97C296.695 277.091 295.593 275.842 294.79 274.222C293.986 272.601 293.585 270.679 293.585 268.455C293.585 266.23 293.986 264.308 294.79 262.688C295.593 261.067 296.695 259.818 298.095 258.939C299.496 258.06 301.095 257.621 302.894 257.621C303.958 257.621 304.957 257.775 305.891 258.084C306.832 258.393 307.68 258.846 308.435 259.444C309.19 260.034 309.822 260.755 310.33 261.606C310.838 262.451 311.188 263.415 311.38 264.5ZM333.303 268.455C333.303 270.679 332.901 272.601 332.098 274.222C331.294 275.842 330.192 277.091 328.792 277.97C327.391 278.849 325.792 279.288 323.993 279.288C322.194 279.288 320.594 278.849 319.194 277.97C317.793 277.091 316.691 275.842 315.888 274.222C315.085 272.601 314.683 270.679 314.683 268.455C314.683 266.23 315.085 264.308 315.888 262.688C316.691 261.067 317.793 259.818 319.194 258.939C320.594 258.06 322.194 257.621 323.993 257.621C325.792 257.621 327.391 258.06 328.792 258.939C330.192 259.818 331.294 261.067 332.098 262.688C332.901 264.308 333.303 266.23 333.303 268.455ZM330.831 268.455C330.831 266.628 330.525 265.087 329.914 263.831C329.31 262.574 328.49 261.623 327.453 260.978C326.423 260.333 325.27 260.01 323.993 260.01C322.716 260.01 321.559 260.333 320.522 260.978C319.493 261.623 318.672 262.574 318.061 263.831C317.457 265.087 317.155 266.628 317.155 268.455C317.155 270.281 317.457 271.822 318.061 273.078C318.672 274.335 319.493 275.286 320.522 275.931C321.559 276.576 322.716 276.899 323.993 276.899C325.27 276.899 326.423 276.576 327.453 275.931C328.49 275.286 329.31 274.335 329.914 273.078C330.525 271.822 330.831 270.281 330.831 268.455ZM337.597 279V257.909H344.723C346.371 257.909 347.724 258.191 348.781 258.754C349.838 259.31 350.621 260.075 351.129 261.05C351.637 262.025 351.891 263.134 351.891 264.376C351.891 265.619 351.637 266.721 351.129 267.682C350.621 268.643 349.842 269.399 348.791 269.948C347.741 270.49 346.399 270.761 344.765 270.761H338.998V268.455H344.682C345.808 268.455 346.714 268.29 347.401 267.96C348.094 267.631 348.596 267.164 348.904 266.56C349.22 265.949 349.378 265.221 349.378 264.376C349.378 263.532 349.22 262.794 348.904 262.162C348.589 261.531 348.084 261.043 347.391 260.7C346.697 260.35 345.781 260.175 344.641 260.175H340.151V279H337.597ZM347.525 269.526L352.715 279H349.749L344.641 269.526H347.525ZM362.655 279H356.147V257.909H362.944C364.99 257.909 366.74 258.331 368.196 259.176C369.651 260.013 370.767 261.218 371.543 262.79C372.319 264.356 372.706 266.23 372.706 268.413C372.706 270.61 372.315 272.502 371.532 274.088C370.75 275.667 369.61 276.882 368.113 277.733C366.617 278.578 364.797 279 362.655 279ZM358.701 276.734H362.491C364.234 276.734 365.68 276.398 366.826 275.725C367.973 275.052 368.827 274.095 369.39 272.852C369.953 271.609 370.235 270.13 370.235 268.413C370.235 266.711 369.957 265.245 369.401 264.016C368.845 262.78 368.014 261.833 366.908 261.174C365.803 260.508 364.427 260.175 362.779 260.175H358.701V276.734ZM388.525 263.182C388.401 262.138 387.9 261.328 387.021 260.751C386.142 260.175 385.064 259.886 383.787 259.886C382.854 259.886 382.037 260.037 381.336 260.339C380.643 260.642 380.101 261.057 379.709 261.586C379.325 262.114 379.133 262.715 379.133 263.388C379.133 263.951 379.266 264.435 379.534 264.84C379.809 265.238 380.159 265.571 380.585 265.839C381.01 266.1 381.457 266.316 381.923 266.488C382.39 266.652 382.819 266.786 383.211 266.889L385.353 267.466C385.902 267.61 386.513 267.809 387.186 268.063C387.866 268.317 388.514 268.664 389.132 269.103C389.757 269.536 390.272 270.092 390.677 270.772C391.082 271.451 391.285 272.286 391.285 273.274C391.285 274.414 390.986 275.444 390.389 276.364C389.798 277.284 388.933 278.015 387.793 278.557C386.661 279.1 385.284 279.371 383.664 279.371C382.153 279.371 380.845 279.127 379.74 278.64C378.642 278.152 377.777 277.472 377.145 276.6C376.52 275.729 376.167 274.716 376.084 273.562H378.721C378.789 274.359 379.057 275.018 379.524 275.54C379.998 276.055 380.595 276.439 381.316 276.693C382.044 276.94 382.826 277.064 383.664 277.064C384.639 277.064 385.514 276.906 386.29 276.59C387.066 276.268 387.68 275.821 388.133 275.251C388.586 274.675 388.813 274.002 388.813 273.233C388.813 272.533 388.617 271.963 388.226 271.523C387.835 271.084 387.32 270.727 386.681 270.452C386.043 270.178 385.353 269.937 384.611 269.732L382.016 268.99C380.368 268.516 379.064 267.84 378.103 266.961C377.142 266.083 376.661 264.933 376.661 263.511C376.661 262.33 376.98 261.301 377.619 260.422C378.264 259.536 379.129 258.85 380.214 258.362C381.305 257.868 382.524 257.621 383.87 257.621C385.229 257.621 386.437 257.864 387.495 258.352C388.552 258.833 389.39 259.492 390.008 260.329C390.632 261.167 390.962 262.118 390.996 263.182H388.525Z" fill="white"/>
</svg>
